<svg xmlns="http://www.w3.org/2000/svg" xmlns:xlink="http://www.w3.org/1999/xlink" xmlns:lucid="lucid" width="2038.23" height="247"><g transform="translate(1033.3912337759562 -214.75987411002797)" lucid:page-tab-id="0_0"><path d="M-1032.4 221.76a6 6 0 0 1 6-6h348a6 6 0 0 1 6 6v232a6 6 0 0 1-6 6h-348a6 6 0 0 1-6-6z" stroke="#3a414a" stroke-width="2" fill="#fff"/><path d="M-1032.4 256.56h360" stroke="#3a414a" stroke-width="2" fill="none"/><use xlink:href="#a" transform="matrix(1,0,0,1,-1024.3912337759562,223.75987411002797) translate(119.58933333333333 15.021333333333333)"/><use xlink:href="#b" transform="matrix(1,0,0,1,-1024.3912337759562,223.75987411002797) translate(177.74533333333335 15.021333333333333)"/><use xlink:href="#c" transform="matrix(1,0,0,1,-1020.3912337759562,264.559874110028) translate(93.98888888888888 64.21111111111111)"/><use xlink:href="#d" transform="matrix(1,0,0,1,-1020.3912337759562,264.559874110028) translate(174.61111111111111 64.21111111111111)"/><use xlink:href="#e" transform="matrix(1,0,0,1,-1020.3912337759562,264.559874110028) translate(214.1888888888889 64.21111111111111)"/><use xlink:href="#f" transform="matrix(1,0,0,1,-1020.3912337759562,264.559874110028) translate(61.58888888888889 96.21111111111111)"/><use xlink:href="#g" transform="matrix(1,0,0,1,-1020.3912337759562,264.559874110028) translate(141.63333333333333 96.21111111111111)"/><use xlink:href="#h" transform="matrix(1,0,0,1,-1020.3912337759562,264.559874110028) translate(41.82222222222222 128.2111111111111)"/><use xlink:href="#i" transform="matrix(1,0,0,1,-1020.3912337759562,264.559874110028) translate(121.86666666666667 128.2111111111111)"/><path d="M-613.33 221.76a6 6 0 0 1 6-6h288a6 6 0 0 1 6 6v233a6 6 0 0 1-6 6h-288a6 6 0 0 1-6-6z" stroke="#3a414a" stroke-width="2" fill="#fff"/><path d="M-613.33 256.56h300" stroke="#3a414a" stroke-width="2" fill="none"/><use xlink:href="#j" transform="matrix(1,0,0,1,-605.3333333333333,223.75987411002797) translate(11.98599999999999 15.021333333333333)"/><use xlink:href="#k" transform="matrix(1,0,0,1,-605.3333333333333,223.75987411002797) translate(83.24466666666666 15.021333333333333)"/><use xlink:href="#l" transform="matrix(1,0,0,1,-605.3333333333333,223.75987411002797) translate(195.878 15.021333333333333)"/><use xlink:href="#m" transform="matrix(1,0,0,1,-605.3333333333333,223.75987411002797) translate(229.85399999999998 15.021333333333333)"/><use xlink:href="#n" transform="matrix(1,0,0,1,-601.3333333333333,264.559874110028) translate(19.066666666666663 80.71111111111111)"/><use xlink:href="#o" transform="matrix(1,0,0,1,-601.3333333333333,264.559874110028) translate(166.77777777777777 80.71111111111111)"/><use xlink:href="#p" transform="matrix(1,0,0,1,-601.3333333333333,264.559874110028) translate(98.16666666666666 112.71111111111111)"/><path d="M-254.28 221.76a6 6 0 0 1 6-6h368a6 6 0 0 1 6 6v232a6 6 0 0 1-6 6h-368a6 6 0 0 1-6-6z" stroke="#3a414a" stroke-width="2" fill="#fff"/><path d="M-254.28 256.56h380" stroke="#3a414a" stroke-width="2" fill="none"/><use xlink:href="#q" transform="matrix(1,0,0,1,-246.27543289071036,223.75987411002797) translate(108.95366666666666 15.021333333333333)"/><use xlink:href="#r" transform="matrix(1,0,0,1,-242.27543289071036,264.559874110028) translate(60.83333333333334 32.211111111111116)"/><use xlink:href="#s" transform="matrix(1,0,0,1,-242.27543289071036,264.559874110028) translate(161.83333333333334 32.211111111111116)"/><use xlink:href="#t" transform="matrix(1,0,0,1,-242.27543289071036,264.559874110028) translate(210.9 32.211111111111116)"/><use xlink:href="#u" transform="matrix(1,0,0,1,-242.27543289071036,264.559874110028) translate(57.12222222222222 64.21111111111111)"/><use xlink:href="#v" transform="matrix(1,0,0,1,-242.27543289071036,264.559874110028) translate(221.72222222222223 64.21111111111111)"/><use xlink:href="#w" transform="matrix(1,0,0,1,-242.27543289071036,264.559874110028) translate(37.25555555555553 96.21111111111111)"/><use xlink:href="#x" transform="matrix(1,0,0,1,-242.27543289071036,264.559874110028) translate(138.23333333333335 96.21111111111111)"/><use xlink:href="#y" transform="matrix(1,0,0,1,-242.27543289071036,264.559874110028) translate(178.01111111111112 96.21111111111111)"/><use xlink:href="#z" transform="matrix(1,0,0,1,-242.27543289071036,264.559874110028) translate(235.25555555555556 96.21111111111111)"/><use xlink:href="#A" transform="matrix(1,0,0,1,-242.27543289071036,264.559874110028) translate(78.36666666666667 128.2111111111111)"/><use xlink:href="#B" transform="matrix(1,0,0,1,-242.27543289071036,264.559874110028) translate(156.5888888888889 128.2111111111111)"/><use xlink:href="#C" transform="matrix(1,0,0,1,-242.27543289071036,264.559874110028) translate(131.7 160.2111111111111)"/><use xlink:href="#D" transform="matrix(1,0,0,1,-242.27543289071036,264.559874110028) translate(181.38888888888889 160.2111111111111)"/><path d="M184.78 221.76a6 6 0 0 1 6-6h368a6 6 0 0 1 6 6v232a6 6 0 0 1-6 6h-368a6 6 0 0 1-6-6z" stroke="#3a414a" stroke-width="2" fill="#fff"/><path d="M184.78 256.56h380" stroke="#3a414a" stroke-width="2" fill="none"/><g><use xlink:href="#E" transform="matrix(1,0,0,1,192.78246755191253,223.75987411002797) translate(107.817 15.021333333333333)"/></g><g><use xlink:href="#F" transform="matrix(1,0,0,1,196.78246755191253,264.559874110028) translate(97.7 64.21111111111111)"/><use xlink:href="#G" transform="matrix(1,0,0,1,196.78246755191253,264.559874110028) translate(149.98888888888888 64.21111111111111)"/><use xlink:href="#H" transform="matrix(1,0,0,1,196.78246755191253,264.559874110028) translate(98.9111111111111 96.21111111111111)"/><use xlink:href="#I" transform="matrix(1,0,0,1,196.78246755191253,264.559874110028) translate(173.7111111111111 96.21111111111111)"/><use xlink:href="#J" transform="matrix(1,0,0,1,196.78246755191253,264.559874110028) translate(87.98888888888888 128.2111111111111)"/><use xlink:href="#K" transform="matrix(1,0,0,1,196.78246755191253,264.559874110028) translate(190.96666666666664 128.2111111111111)"/></g><path d="M623.84 221.76a6 6 0 0 1 6-6h368a6 6 0 0 1 6 6v232a6 6 0 0 1-6 6h-368a6 6 0 0 1-6-6z" stroke="#3a414a" stroke-width="2" fill="#fff"/><path d="M623.84 256.56h380" stroke="#3a414a" stroke-width="2" fill="none"/><g><use xlink:href="#L" transform="matrix(1,0,0,1,631.8403679945354,223.75987411002797) translate(104.70666666666668 15.021333333333333)"/></g><g><use xlink:href="#M" transform="matrix(1,0,0,1,635.8403679945354,264.559874110028) translate(59.900000000000006 64.21111111111111)"/><use xlink:href="#N" transform="matrix(1,0,0,1,635.8403679945354,264.559874110028) translate(170.07777777777778 64.21111111111111)"/><use xlink:href="#O" transform="matrix(1,0,0,1,635.8403679945354,264.559874110028) translate(59.833333333333314 96.21111111111111)"/><use xlink:href="#P" transform="matrix(1,0,0,1,635.8403679945354,264.559874110028) translate(158.83333333333334 96.21111111111111)"/><use xlink:href="#Q" transform="matrix(1,0,0,1,635.8403679945354,264.559874110028) translate(207.54444444444445 96.21111111111111)"/><use xlink:href="#R" transform="matrix(1,0,0,1,635.8403679945354,264.559874110028) translate(7.633333333333326 128.2111111111111)"/><use xlink:href="#P" transform="matrix(1,0,0,1,635.8403679945354,264.559874110028) translate(84.67777777777778 128.2111111111111)"/><use xlink:href="#S" transform="matrix(1,0,0,1,635.8403679945354,264.559874110028) translate(133.38888888888889 128.2111111111111)"/><use xlink:href="#T" transform="matrix(1,0,0,1,635.8403679945354,264.559874110028) translate(220.85555555555555 128.2111111111111)"/><use xlink:href="#U" transform="matrix(1,0,0,1,635.8403679945354,264.559874110028) translate(244.5222222222222 128.2111111111111)"/></g><path d="M-670.9 337.76h27.8a.25.25 0 0 1 .24.25.25.25 0 0 0 .25.26h11.88" stroke="#3a414a" fill="none"/><path d="M-670.88 338.24h-.5v-.95h.5z" stroke="#3a414a" stroke-width=".05" fill="#3a414a"/><path d="M-615.95 338.26l-14.27 4.63v-9.27z" stroke="#3a414a" fill="#3a414a"/><path d="M-311.83 338.26h27.78a.25.25 0 0 0 .25-.25.25.25 0 0 1 .25-.24h11.9" stroke="#3a414a" fill="none"/><path d="M-311.82 338.74h-.5v-.95h.5z" stroke="#3a414a" stroke-width=".05" fill="#3a414a"/><path d="M-256.9 337.76l-14.26 4.63v-9.27z" stroke="#3a414a" fill="#3a414a"/><path d="M127.22 337.76h40.18" stroke="#3a414a" fill="none"/><path d="M127.24 338.24h-.52v-.95h.52z" stroke="#3a414a" stroke-width=".05" fill="#3a414a"/><path d="M182.16 337.76l-14.26 4.63v-9.27z" stroke="#3a414a" fill="#3a414a"/><path d="M566.28 337.76h40.18" stroke="#3a414a" fill="none"/><path d="M566.3 338.24h-.52v-.95h.5z" stroke="#3a414a" stroke-width=".05" fill="#3a414a"/><path d="M621.22 337.76l-14.26 4.63v-9.27z" stroke="#3a414a" fill="#3a414a"/><defs><path d="M271-136c-1 86 23 90 100 94V0H30v-42c73-5 93-12 93-94v-395c1-83-20-89-93-94v-42h341v42c-78 3-100 9-100 94v395" id="V"/><path d="M219-119c-3 72 16 82 74 85V0H20v-34c50 2 68-17 68-75v-215c3-22-38-42-73-49v-27l184-61h20v96c47-32 159-93 199-84 134-1 112 173 112 314 1 86-3 93 62 101V0H338v-34c48-6 61-36 61-141v-64c-1-166-79-150-180-82v202" id="W"/><path d="M572-247c0 135-100 258-247 258-34 0-66-4-106-13v108c0 81 19 99 106 104v34H17v-34c68-3 71-18 71-101v-421c5-49-36-52-69-64v-27l172-58h28v102c87-71 124-90 178-90 100 0 175 87 175 202zM219-80c30 32 73 52 109 52 66 0 112-65 112-158 0-109-47-183-114-183-33 0-65 17-107 55v234" id="X"/><path d="M88-152v-163c4-56-16-55-45-71v-24l154-39h22v235c0 71 3 95 17 115 12 19 31 29 53 29 25 0 62-15 108-44v-194c9-66-47-60-88-77v-25l219-39v328c-4 73 21 71 63 58v33L418 11h-21v-85c-96 61-150 85-193 85-76 0-116-57-116-163" id="Y"/><path d="M205 11C114 11 84-40 84-152v-233H27v-21c61-23 138-105 158-166h30v130h142l-15 57H215v242c-3 62 8 72 50 81 26 0 51-17 81-54l16 30c-33 57-97 97-157 97" id="Z"/><g id="a"><use transform="matrix(0.020666666666666667,0,0,0.020666666666666667,0,0)" xlink:href="#V"/><use transform="matrix(0.020666666666666667,0,0,0.020666666666666667,8.163333333333334,0)" xlink:href="#W"/><use transform="matrix(0.020666666666666667,0,0,0.020666666666666667,20.584000000000003,0)" xlink:href="#X"/><use transform="matrix(0.020666666666666667,0,0,0.020666666666666667,32.922000000000004,0)" xlink:href="#Y"/><use transform="matrix(0.020666666666666667,0,0,0.020666666666666667,45.34266666666667,0)" xlink:href="#Z"/></g><path d="M21 0v-42c76-1 85-14 91-113 8-138 25-275 25-414 0-39-18-53-72-56v-42h226l209 451 200-451h231v42c-74 0-82 15-78 82l26 395c6 94 11 99 95 106V0H636v-42c96 8 104-27 98-120l-25-381L468 0h-26L196-530c-8 139-20 275-26 416-2 55 21 72 89 72V0H21" id="aa"/><path d="M271-136c-4 93 33 91 117 94V0H13v-42c82-2 110-5 110-94v-395c3-89-27-91-108-94v-42c130-11 242-17 316-17 192 0 347 40 347 196 0 82-60 147-159 174 36 30 54 56 120 144C721-60 761-37 846-31v42c-94 4-195-1-243-25-49-24-65-39-158-166-35-49-59-77-89-104h-85v148zm0-189c159 5 246-40 246-157 0-121-99-171-246-155v312" id="ab"/><g id="b"><use transform="matrix(0.020666666666666667,0,0,0.020666666666666667,0,0)" xlink:href="#aa"/><use transform="matrix(0.020666666666666667,0,0,0.020666666666666667,20.563333333333333,0)" xlink:href="#ab"/><use transform="matrix(0.020666666666666667,0,0,0.020666666666666667,38.501999999999995,0)" xlink:href="#V"/></g><path d="M490-256c-12-69-12-82-104-82H215v203c0 75 1 78 16 94 13 15 40 22 78 21V0H48v-20c69-5 78-21 78-115v-397c0-94-10-111-80-115v-20h481v126h-20c-1-32-7-51-18-65-16-19-29-22-101-22H215v251h176c87 1 86-9 99-68h18v189h-18" id="ac"/><path d="M24 0v-19c40 1 80-1 89-17 14-15 14-21 14-104v-392c0-76-2-77-16-94-14-16-45-22-84-21v-20h317v20c-15 1-20 2-40 2-87 3-88 5-88 108v436c0 58 3 62 55 62h120c79 0 87-4 141-73l35-45h19L504 0H24" id="ad"/><path d="M146-59c4 37 46 38 104 39V0H3v-20c68-2 82-15 115-106l196-534-10-24h93l205 544C641-35 651-20 719-20V0H424v-20c116-3 129-5 96-92l-69-184H229c-21 64-68 178-83 237zm102-284h186l-95-251" id="ae"/><path d="M47 0v-20c71-4 80-21 80-115v-397c0-94-9-111-80-115v-20h260v20c-37-1-62 6-75 21-14 15-16 29-16 94v397c0 75 1 78 16 94 13 15 38 22 75 21V0H47" id="af"/><path d="M22 0v-20c40 2 75-4 89-21s16-18 16-94v-398c0-63-4-80-16-94-13-16-40-21-88-20v-20c242-13 557-52 557 180 0 81-54 148-141 175 51 40 74 62 175 165C710-49 773-12 856-7v19c-79 2-157-5-199-25-40-19-68-41-158-131-75-74-129-123-155-139-44 3-82 5-128 1 5 61-13 221 16 241 13 19 54 23 95 21V0H22zm194-302c160 19 263-33 263-177 0-137-104-194-263-176v353" id="ag"/><path d="M174 32c0-33-20-18-44-18-25 0-45-22-45-49 0-30 25-54 58-54 43 0 75 38 75 90 0 66-49 130-119 158l-7-20c52-30 82-69 82-107" id="ah"/><g id="c"><use transform="matrix(0.022222222222222223,0,0,0.022222222222222223,0,0)" xlink:href="#ac"/><use transform="matrix(0.022222222222222223,0,0,0.022222222222222223,12.68888888888889,0)" xlink:href="#ad"/><use transform="matrix(0.022222222222222223,0,0,0.022222222222222223,25.888888888888896,0)" xlink:href="#ae"/><use transform="matrix(0.022222222222222223,0,0,0.022222222222222223,42.04444444444445,0)" xlink:href="#af"/><use transform="matrix(0.022222222222222223,0,0,0.022222222222222223,50.51111111111112,0)" xlink:href="#ag"/><use transform="matrix(0.022222222222222223,0,0,0.022222222222222223,68.86666666666667,0)" xlink:href="#ah"/></g><path d="M195 0v-20c43 1 92-1 107-21 13-17 16-19 16-94v-493H155c-55 0-59 2-75 25-11 17-20 46-28 93H33l17-174h19c7 16 11 17 64 17h459c53 0 57-1 64-17h19l17 174h-19c-9-53-19-81-32-98-15-19-18-20-71-20H407v493c0 76 3 77 16 94 15 19 63 22 105 21V0H195" id="ai"/><path d="M140 0v-20h41c57 0 58-1 58-64v-514c-30 27-101 74-134 88l-9-15c52-34 157-128 177-159h37v627c-11 51 58 34 100 37V0H140" id="aj"/><g id="d"><use transform="matrix(0.022222222222222223,0,0,0.022222222222222223,0,0)" xlink:href="#ai"/><use transform="matrix(0.022222222222222223,0,0,0.022222222222222223,16.11111111111111,0)" xlink:href="#aj"/><use transform="matrix(0.022222222222222223,0,0,0.022222222222222223,27.822222222222223,0)" xlink:href="#ah"/></g><path d="M351-66c106 1 94-15 114-85h17L461 0H33v-17c31-40 80-92 197-209 98-98 144-179 144-253 0-81-62-144-142-144-76 0-144 58-169 145H46c14-123 101-206 217-206 113 0 198 81 198 189 0 50-18 101-51 142-24 30-25 29-118 107-80 66-92 79-191 180h250" id="ak"/><g id="e"><use transform="matrix(0.022222222222222223,0,0,0.022222222222222223,0,0)" xlink:href="#ai"/><use transform="matrix(0.022222222222222223,0,0,0.022222222222222223,16.11111111111111,0)" xlink:href="#ak"/></g><path d="M203 13C132 13 90-27 90-126v-210c7-38-30-46-67-54v-16l138-30v251c0 75 0 90 16 109 57 67 140 38 209-22v-199c0-55-1-62-7-72-7-12-9-14-55-21l-32-5v-15l165-26v359c-3 51 38 30 72 27v19L386 13v-87c-78 57-141 87-183 87" id="al"/><path d="M177 13c-22 0-50-8-77-15-8 0-12 4-17 14H66L55-108h17C80-46 120-6 173-6c42 0 76-32 76-72 0-36-26-67-98-115-82-55-97-74-97-122 0-103 127-148 223-105l3 99h-19c-9-55-42-90-85-90-37 0-66 27-66 61 0 35 18 55 84 97 73 46 116 60 116 144 0 69-58 122-133 122" id="am"/><path d="M136-604c-28 0-47-17-47-42 0-23 20-40 47-40s47 17 47 41-20 41-47 41zM18-20c77-11 89-9 89-105v-179c0-56 0-55-56-67l-27-6v-17l139-48h15v317c0 62 1 68 13 83 12 14 26 19 64 22V0H18v-20" id="an"/><path d="M274 13C149 13 40-81 40-214c0-125 100-222 230-222 131 0 232 98 232 226C502-85 402 13 274 13zM120-244c0 128 74 232 166 232 78 0 136-74 136-172 0-123-76-227-166-227-78 0-136 71-136 167" id="ao"/><path d="M313-387c-24-9-119 47-142 64v189c0 81 1 80 10 94 10 15 27 20 62 20V0H28v-20c24 1 47-9 59-23 23-29 13-170 13-231 0-106 10-71-69-100v-16l124-46h16v93c77-55 147-87 189-87 146 0 113 207 103 365-2 38 28 47 84 45V0H316v-20c46-4 61-12 70-36 8-21 14-117 14-209 0-77-24-117-87-122" id="ap"/><g id="f"><use transform="matrix(0.022222222222222223,0,0,0.022222222222222223,0,0)" xlink:href="#ac"/><use transform="matrix(0.022222222222222223,0,0,0.022222222222222223,12.777777777777779,0)" xlink:href="#al"/><use transform="matrix(0.022222222222222223,0,0,0.022222222222222223,25.066666666666666,0)" xlink:href="#am"/><use transform="matrix(0.022222222222222223,0,0,0.022222222222222223,32.711111111111116,0)" xlink:href="#an"/><use transform="matrix(0.022222222222222223,0,0,0.022222222222222223,38.53333333333334,0)" xlink:href="#ao"/><use transform="matrix(0.022222222222222223,0,0,0.022222222222222223,50.28888888888889,0)" xlink:href="#ap"/><use transform="matrix(0.022222222222222223,0,0,0.022222222222222223,62.77777777777778,0)" xlink:href="#ak"/></g><path d="M270 231C182 136 78-53 78-237c0-176 102-371 192-469l30 26c-80 91-163 265-163 443 0 170 82 350 163 442" id="aq"/><path d="M247-131v-194H43v-33h204v-194h33v194h203v33H280v194h-33" id="ar"/><path d="M226 13C114 13 41-85 40-194c0-134 111-243 247-243 67 0 120 27 120 61 0 18-14 32-32 32-33 10-87-78-125-66-74 0-138 89-138 191 0 108 64 188 151 188 53 0 89-21 131-77l16 9C366-27 301 13 226 13" id="as"/><path d="M25 205c79-91 163-265 163-442 0-171-82-350-163-443l30-26c87 96 192 284 192 469 0 175-104 370-192 468" id="at"/><g id="g"><use transform="matrix(0.022222222222222223,0,0,0.022222222222222223,0,0)" xlink:href="#aq"/><use transform="matrix(0.022222222222222223,0,0,0.022222222222222223,7.2,0)" xlink:href="#ac"/><use transform="matrix(0.022222222222222223,0,0,0.022222222222222223,19.88888888888889,0)" xlink:href="#ad"/><use transform="matrix(0.022222222222222223,0,0,0.022222222222222223,33.08888888888889,0)" xlink:href="#ae"/><use transform="matrix(0.022222222222222223,0,0,0.022222222222222223,49.24444444444443,0)" xlink:href="#af"/><use transform="matrix(0.022222222222222223,0,0,0.022222222222222223,57.711111111111116,0)" xlink:href="#ag"/><use transform="matrix(0.022222222222222223,0,0,0.022222222222222223,76.06666666666666,0)" xlink:href="#ar"/><use transform="matrix(0.022222222222222223,0,0,0.022222222222222223,87.77777777777777,0)" xlink:href="#ai"/><use transform="matrix(0.022222222222222223,0,0,0.022222222222222223,103.8888888888889,0)" xlink:href="#aj"/><use transform="matrix(0.022222222222222223,0,0,0.022222222222222223,115.60000000000001,0)" xlink:href="#as"/><use transform="matrix(0.022222222222222223,0,0,0.022222222222222223,125.57777777777777,0)" xlink:href="#at"/></g><path d="M188-344c47-32 149-128 149-186 0-54-47-99-105-99-55 0-113 42-144 105l-19-7c36-93 114-153 199-153 80 0 140 51 140 120 0 54-39 108-112 152 103-6 175 73 175 176 0 133-128 251-272 251-86 0-161-36-161-77 0-19 16-36 34-36 16 0 26 6 64 37 46 37 67 47 100 47 84 0 155-90 155-195 0-119-106-194-192-119" id="au"/><g id="h"><use transform="matrix(0.022222222222222223,0,0,0.022222222222222223,0,0)" xlink:href="#ac"/><use transform="matrix(0.022222222222222223,0,0,0.022222222222222223,12.777777777777779,0)" xlink:href="#al"/><use transform="matrix(0.022222222222222223,0,0,0.022222222222222223,25.066666666666666,0)" xlink:href="#am"/><use transform="matrix(0.022222222222222223,0,0,0.022222222222222223,32.711111111111116,0)" xlink:href="#an"/><use transform="matrix(0.022222222222222223,0,0,0.022222222222222223,38.53333333333334,0)" xlink:href="#ao"/><use transform="matrix(0.022222222222222223,0,0,0.022222222222222223,50.28888888888889,0)" xlink:href="#ap"/><use transform="matrix(0.022222222222222223,0,0,0.022222222222222223,62.77777777777778,0)" xlink:href="#au"/></g><g id="i"><use transform="matrix(0.022222222222222223,0,0,0.022222222222222223,0,0)" xlink:href="#aq"/><use transform="matrix(0.022222222222222223,0,0,0.022222222222222223,7.2,0)" xlink:href="#ac"/><use transform="matrix(0.022222222222222223,0,0,0.022222222222222223,19.88888888888889,0)" xlink:href="#ad"/><use transform="matrix(0.022222222222222223,0,0,0.022222222222222223,33.08888888888889,0)" xlink:href="#ae"/><use transform="matrix(0.022222222222222223,0,0,0.022222222222222223,49.24444444444443,0)" xlink:href="#af"/><use transform="matrix(0.022222222222222223,0,0,0.022222222222222223,57.711111111111116,0)" xlink:href="#ag"/><use transform="matrix(0.022222222222222223,0,0,0.022222222222222223,76.06666666666666,0)" xlink:href="#ar"/><use transform="matrix(0.022222222222222223,0,0,0.022222222222222223,87.77777777777777,0)" xlink:href="#ai"/><use transform="matrix(0.022222222222222223,0,0,0.022222222222222223,103.8888888888889,0)" xlink:href="#aj"/><use transform="matrix(0.022222222222222223,0,0,0.022222222222222223,115.60000000000001,0)" xlink:href="#as"/><use transform="matrix(0.022222222222222223,0,0,0.022222222222222223,125.57777777777777,0)" xlink:href="#ar"/><use transform="matrix(0.022222222222222223,0,0,0.022222222222222223,137.2888888888889,0)" xlink:href="#ai"/><use transform="matrix(0.022222222222222223,0,0,0.022222222222222223,153.4,0)" xlink:href="#ak"/><use transform="matrix(0.022222222222222223,0,0,0.022222222222222223,165.11111111111111,0)" xlink:href="#at"/></g><path d="M186-122c-35 72 25 83 99 80V0H0v-42c69 3 91-16 121-99l183-512-11-30h157l215 545c28 71 53 92 109 96V0H424v-42c49 2 109 0 102-41-11-56-43-114-62-166H231zm67-186h187l-99-250" id="av"/><path d="M251-450c91 0 175 40 175 150 0 55-2 180 4 217 10 24 27 21 49 4l16 25c-35 37-87 64-122 64-40 0-66-22-75-64-36 29-76 65-134 65C87 11 39-32 39-101c0-74 46-111 122-130 63-16 104-39 132-64 7-62-13-111-66-112-43-1-65 35-56 83L51-282c-4-17-5-25-5-36 0-85 127-132 205-132zm-83 327c0 44 22 74 54 74 18 0 32-8 73-44v-154c-20 16-28 20-69 39-43 21-58 43-58 85" id="aw"/><path d="M219-119c-3 67 14 79 64 85V0H17v-34c52 3 71-15 71-75v-442c8-76-34-61-74-81v-32l186-53h19v598" id="ax"/><path d="M147-558c-47 0-83-32-83-73 0-40 40-74 88-74 46 0 83 33 83 74s-39 73-88 73zm72 439c-3 69 14 79 66 85V0H17v-34c52 3 71-15 71-75v-202c12-50-41-50-72-67v-26l183-60h20v345" id="ay"/><path d="M220 12c-28 0-77-8-111-16-6 0-12 4-22 14H57L45-126h34c24 60 61 91 112 91 47 0 73-53 39-84-14-12-13-13-80-56-78-50-104-84-104-138 0-125 169-167 287-114l2 115h-33c-20-60-56-93-102-93-28 0-49 18-49 42 0 27 20 48 78 81 68 39 75 44 97 66 23 23 36 56 36 92 0 79-60 136-142 136" id="az"/><g id="j"><use transform="matrix(0.020666666666666667,0,0,0.020666666666666667,0,0)" xlink:href="#av"/><use transform="matrix(0.020666666666666667,0,0,0.020666666666666667,15.996,0)" xlink:href="#W"/><use transform="matrix(0.020666666666666667,0,0,0.020666666666666667,28.602666666666668,0)" xlink:href="#aw"/><use transform="matrix(0.020666666666666667,0,0,0.020666666666666667,38.83266666666667,0)" xlink:href="#ax"/><use transform="matrix(0.020666666666666667,0,0,0.020666666666666667,45.09466666666667,0)" xlink:href="#ay"/><use transform="matrix(0.020666666666666667,0,0,0.020666666666666667,51.43933333333333,0)" xlink:href="#az"/><use transform="matrix(0.020666666666666667,0,0,0.020666666666666667,59.74733333333333,0)" xlink:href="#ay"/></g><path d="M473-59c106 5 119-36 140-109h40L640 0H-5v-42c87-2 128 3 128-94v-395c2-88-24-91-104-94v-42h590l12 155h-42c-15-70-7-97-92-96H271v244h157c77-3 90-11 96-76h44v213h-43c2-59-19-78-96-78H271v151c0 95 0 95 58 95h144" id="aA"/><path d="M37-216c0-131 118-234 269-234 148 0 254 93 254 223C560-90 445 11 288 11 141 11 37-83 37-216zm142-61c0 100 44 244 143 244 60 0 96-49 96-133 0-139-58-239-139-239-63 0-100 48-100 128" id="aB"/><path d="M20 0v-34c50 2 68-17 68-75v-176c6-63-27-67-68-83v-27l176-66h23v120c69-113 55-119 140-98l62 24c-12 41-33 89-51 114-26-8-58-27-88-27-20 0-40 15-63 48v161c-4 81 28 88 100 85V0H20" id="aC"/><path d="M237 6L86-319c-30-64-45-81-91-85v-34h272v34c-28 0-67-2-61 23 0 10 4 22 15 46l91 205 83-190c24-54 16-77-63-84v-34h214v34c-58 4-68 17-106 102L303 6h-66" id="aD"/><g id="k"><use transform="matrix(0.020666666666666667,0,0,0.020666666666666667,0,0)" xlink:href="#aA"/><use transform="matrix(0.020666666666666667,0,0,0.020666666666666667,14.446,0)" xlink:href="#az"/><use transform="matrix(0.020666666666666667,0,0,0.020666666666666667,22.650666666666666,0)" xlink:href="#X"/><use transform="matrix(0.020666666666666667,0,0,0.020666666666666667,35.050666666666665,0)" xlink:href="#ax"/><use transform="matrix(0.020666666666666667,0,0,0.020666666666666667,41.14733333333333,0)" xlink:href="#aB"/><use transform="matrix(0.020666666666666667,0,0,0.020666666666666667,53.361333333333334,0)" xlink:href="#aC"/><use transform="matrix(0.020666666666666667,0,0,0.020666666666666667,62.062,0)" xlink:href="#aw"/><use transform="matrix(0.020666666666666667,0,0,0.020666666666666667,72.14733333333334,0)" xlink:href="#Z"/><use transform="matrix(0.020666666666666667,0,0,0.020666666666666667,79.794,0)" xlink:href="#ay"/><use transform="matrix(0.020666666666666667,0,0,0.020666666666666667,86.03533333333333,0)" xlink:href="#aD"/><use transform="matrix(0.020666666666666667,0,0,0.020666666666666667,97.23666666666666,0)" xlink:href="#aw"/></g><path d="M383-560c4-66-26-64-72-78v-26l167-53h36v576c-4 82 24 87 76 73v32L412 11h-29v-85c-67 59-118 85-172 85C109 11 37-73 37-191c0-176 155-306 346-244v-125zM168-249c0 167 125 237 215 127v-239c-91-93-215-43-215 112" id="aE"/><path d="M37-209c0-140 96-240 230-240 104 0 172 56 185 159 3 17 8 26 21 34v24H174c6 91 66 164 136 164 38 0 78-23 129-77l24 21C402-39 316 11 233 11 117 11 37-79 37-209zm135-57h153c-1-82-29-132-76-132-49-1-81 58-77 132" id="aF"/><g id="l"><use transform="matrix(0.020666666666666667,0,0,0.020666666666666667,0,0)" xlink:href="#aE"/><use transform="matrix(0.020666666666666667,0,0,0.020666666666666667,12.172666666666666,0)" xlink:href="#aF"/><use transform="matrix(0.020666666666666667,0,0,0.020666666666666667,22.464666666666666,0)" xlink:href="#ay"/></g><path d="M123-531c1-86-22-90-99-94v-42c190-15 435-31 582 14 136 41 222 158 222 302 0 135-84 258-204 310C489 18 223-6 23 0v-42c78-3 100-9 100-94v-395zm545 196c2-216-154-328-397-292v502c0 73 11 83 91 83 191 0 305-111 306-293" id="aG"/><g id="m"><use transform="matrix(0.020666666666666667,0,0,0.020666666666666667,0,0)" xlink:href="#aG"/><use transform="matrix(0.020666666666666667,0,0,0.020666666666666667,18.083333333333332,0)" xlink:href="#aw"/><use transform="matrix(0.020666666666666667,0,0,0.020666666666666667,28.168666666666667,0)" xlink:href="#Z"/><use transform="matrix(0.020666666666666667,0,0,0.020666666666666667,35.815333333333335,0)" xlink:href="#ay"/></g><path d="M326 19L98-550c-33-83-46-97-110-97v-20h295v20c-119 9-123 22-90 103L375-93l169-442c33-81 34-109-81-112v-20h248v20c-59 1-86 28-118 112L380 19h-54" id="aH"/><path d="M255-52c-39 28-89 75-129 65-56 0-95-36-95-88 0-54 33-80 126-105 41-11 68-23 96-41v-85c7-65-33-99-79-99-38 0-82 36-60 72l-73 36c-23-58 109-139 155-139 43 0 88 24 112 56 34 46 3 251 20 323 3 12 12 18 25 18 16 0 29-6 52-23l5 15c-40 36-83 60-106 60-30 0-47-23-49-65zm-92 27c14 8 60-30 90-47v-128c-19 11-32 17-93 42-43 18-60 38-60 70 0 35 28 63 63 63" id="aI"/><path d="M11 0v-20c35 1 61-6 75-22 14-15 14-16 14-95v-434c0-65 0-65-6-72-6-10-55-12-75-16v-18l136-44h16c2 216-4 455 3 664 8 28 34 38 78 37V0H11" id="aJ"/><path d="M303-39c82 5 71-30 101-78h19L379 0H34v-20l271-366H158c-49 0-50 0-58 12s-26 61-33 91H47l33-171h18c0 24 9 29 51 29h256v19L133-39h170" id="aK"/><path d="M418-98C381-53 308 13 227 13 122 13 40-83 40-207c0-115 76-230 209-230 86 0 128 35 154 107 7 19 24 23 21 50H111C88-151 163-39 270-40c54 0 95-22 136-71zM114-300h220c-11-70-54-116-108-116-53 0-93 41-112 116" id="aL"/><g id="n"><use transform="matrix(0.022222222222222223,0,0,0.022222222222222223,0,0)" xlink:href="#aH"/><use transform="matrix(0.022222222222222223,0,0,0.022222222222222223,15.777777777777779,0)" xlink:href="#an"/><use transform="matrix(0.022222222222222223,0,0,0.022222222222222223,21.977777777777778,0)" xlink:href="#am"/><use transform="matrix(0.022222222222222223,0,0,0.022222222222222223,29.622222222222224,0)" xlink:href="#al"/><use transform="matrix(0.022222222222222223,0,0,0.022222222222222223,42.2,0)" xlink:href="#aI"/><use transform="matrix(0.022222222222222223,0,0,0.022222222222222223,51.4,0)" xlink:href="#aJ"/><use transform="matrix(0.022222222222222223,0,0,0.022222222222222223,57.2,0)" xlink:href="#an"/><use transform="matrix(0.022222222222222223,0,0,0.022222222222222223,63.62222222222223,0)" xlink:href="#aK"/><use transform="matrix(0.022222222222222223,0,0,0.022222222222222223,73.31111111111112,0)" xlink:href="#aK"/><use transform="matrix(0.022222222222222223,0,0,0.022222222222222223,83.31111111111113,0)" xlink:href="#aI"/><use transform="matrix(0.022222222222222223,0,0,0.022222222222222223,92.51111111111113,0)" xlink:href="#aK"/><use transform="matrix(0.022222222222222223,0,0,0.022222222222222223,102.20000000000002,0)" xlink:href="#an"/><use transform="matrix(0.022222222222222223,0,0,0.022222222222222223,108.02222222222224,0)" xlink:href="#ao"/><use transform="matrix(0.022222222222222223,0,0,0.022222222222222223,119.7777777777778,0)" xlink:href="#ap"/><use transform="matrix(0.022222222222222223,0,0,0.022222222222222223,131.9777777777778,0)" xlink:href="#aL"/></g><path d="M1 239l214-947h41L41 239H1" id="aM"/><g id="o"><use transform="matrix(0.022222222222222223,0,0,0.022222222222222223,0,0)" xlink:href="#as"/><use transform="matrix(0.022222222222222223,0,0,0.022222222222222223,9.977777777777778,0)" xlink:href="#ao"/><use transform="matrix(0.022222222222222223,0,0,0.022222222222222223,21.733333333333334,0)" xlink:href="#ap"/><use transform="matrix(0.022222222222222223,0,0,0.022222222222222223,34.22222222222222,0)" xlink:href="#aM"/><use transform="matrix(0.022222222222222223,0,0,0.022222222222222223,40.93333333333333,0)" xlink:href="#am"/><use transform="matrix(0.022222222222222223,0,0,0.022222222222222223,48.57777777777778,0)" xlink:href="#aL"/><use transform="matrix(0.022222222222222223,0,0,0.022222222222222223,58.46666666666666,0)" xlink:href="#ap"/><use transform="matrix(0.022222222222222223,0,0,0.022222222222222223,70.95555555555555,0)" xlink:href="#aK"/><use transform="matrix(0.022222222222222223,0,0,0.022222222222222223,80.95555555555555,0)" xlink:href="#aI"/></g><path d="M674-11c-46-12-174 28-243 28C214 17 57-126 57-325c0-209 161-359 385-359 77 0 154 25 227 44 8 2 20-9 35-6l9 154h-20c-36-100-134-166-245-166-171 1-291 130-291 310 0 190 132 336 305 336 114 0 200-52 260-156h21c-11 39-45 118-69 157" id="aN"/><path d="M36 0v-20c37 1 62-6 75-21 15-16 16-19 16-94v-397c0-94-9-109-77-115v-20h255v20c-37 0-60 5-73 21-15 17-16 19-16 94v177h421v-177c0-65-3-79-15-94-14-17-50-23-90-21v-20h276v20c-72 4-82 20-82 115v397c0 75 2 78 16 94 14 15 42 22 81 21V0H520v-20c94-5 117 4 117-115v-184H216v184c0 75 1 78 16 94 13 15 38 22 74 21V0H36" id="aO"/><path d="M370-365c102 3 83-14 101-81h20v205h-20c-3-28-8-47-17-62-12-21-20-23-87-23H216v195c0 53 2 66 10 77 16 26 130 15 179 15 78 0 97-5 117-28 17-20 33-55 42-93h20L567 0H-4v-21c45 1 94-3 110-17 17-15 21-26 21-97v-397c0-66-3-79-15-94-15-18-54-23-94-21v-20h515l9 149h-20c-5-39-15-69-27-89-14-23-23-25-92-25H216v267h154" id="aP"/><g id="p"><use transform="matrix(0.022222222222222223,0,0,0.022222222222222223,0,0)" xlink:href="#aN"/><use transform="matrix(0.022222222222222223,0,0,0.022222222222222223,17.37777777777778,0)" xlink:href="#ad"/><use transform="matrix(0.022222222222222223,0,0,0.022222222222222223,30.577777777777783,0)" xlink:href="#ae"/><use transform="matrix(0.022222222222222223,0,0,0.022222222222222223,46.733333333333334,0)" xlink:href="#aO"/><use transform="matrix(0.022222222222222223,0,0,0.022222222222222223,65.66666666666667,0)" xlink:href="#aP"/></g><path d="M272-136c-6 97 40 92 126 94V0H33v-42c78-4 91 0 91-87v-409c6-91-19-83-99-87v-42c124-8 304-17 345-17 163 0 294 69 295 210 0 124-105 204-269 204-41 0-80-4-124-11v145zm0-189c130 29 232-21 232-154 0-132-105-186-232-151v305" id="aQ"/><path d="M39-164v-107h371v107H39" id="aR"/><path d="M37-201c0-140 121-249 277-249 93 0 163 39 163 91 0 32-22 54-55 54-32 0-47-7-90-57-77-90-151-8-151 125 0 114 54 193 133 193 47 0 92-26 136-77l31 18C431-29 356 11 262 11 131 11 37-78 37-201" id="aS"/><path d="M304-55c133 0 255 22 255 124S428 248 255 248c-123 0-218-46-218-107 0-31 19-51 67-72 21-9 28-15 37-30C54 15 6-85 103-123c15-6 30-11 92-30-74-4-140-67-140-132 0-93 95-164 219-164 58 0 106 14 144 42l152-39v111l-108-25c79 126-69 231-204 219-73 25-89 34-89 51 0 22 48 35 135 35zm-31-129c50 0 78-34 78-96 0-77-32-125-84-125-50 0-80 38-80 101 0 78 30 120 86 120zM192 50c-96 65-3 152 117 152 87 0 154-39 154-90 0-39-31-58-106-55-53 3-130 4-165-7" id="aT"/><g id="q"><use transform="matrix(0.020666666666666667,0,0,0.020666666666666667,0,0)" xlink:href="#aQ"/><use transform="matrix(0.020666666666666667,0,0,0.020666666666666667,14.342666666666666,0)" xlink:href="#aC"/><use transform="matrix(0.020666666666666667,0,0,0.020666666666666667,22.857333333333333,0)" xlink:href="#aF"/><use transform="matrix(0.020666666666666667,0,0,0.020666666666666667,33.31466666666667,0)" xlink:href="#aR"/><use transform="matrix(0.020666666666666667,0,0,0.020666666666666667,42.55266666666667,0)" xlink:href="#aQ"/><use transform="matrix(0.020666666666666667,0,0,0.020666666666666667,56.89533333333333,0)" xlink:href="#aC"/><use transform="matrix(0.020666666666666667,0,0,0.020666666666666667,65.36866666666667,0)" xlink:href="#aB"/><use transform="matrix(0.020666666666666667,0,0,0.020666666666666667,77.686,0)" xlink:href="#aS"/><use transform="matrix(0.020666666666666667,0,0,0.020666666666666667,88.30866666666668,0)" xlink:href="#aF"/><use transform="matrix(0.020666666666666667,0,0,0.020666666666666667,98.76600000000002,0)" xlink:href="#az"/><use transform="matrix(0.020666666666666667,0,0,0.020666666666666667,107.07400000000001,0)" xlink:href="#az"/><use transform="matrix(0.020666666666666667,0,0,0.020666666666666667,115.382,0)" xlink:href="#ay"/><use transform="matrix(0.020666666666666667,0,0,0.020666666666666667,121.72666666666666,0)" xlink:href="#W"/><use transform="matrix(0.020666666666666667,0,0,0.020666666666666667,134.14733333333334,0)" xlink:href="#aT"/></g><path d="M103-41C88-65 87-77 87-154v-224H38v-17c40-19 81-73 102-136h18v106h153l-17 47H158v199c0 77 2 91 16 109 41 51 89 42 121-21l17 15C277 22 157 46 103-41" id="aU"/><path d="M246-368c-33 0-65 69-75 81v153c0 81 0 81 10 94 8 24 62 20 101 20V0H29v-20c23 1 46-9 58-23 11-14 13-25 13-90v-216l-71-26v-18l121-43h21v113c33-45 66-139 141-98 9 5 32 10 55 16l-26 65c-22 0-70-28-95-28" id="aV"/><g id="r"><use transform="matrix(0.022222222222222223,0,0,0.022222222222222223,0,0)" xlink:href="#aP"/><use transform="matrix(0.022222222222222223,0,0,0.022222222222222223,13.911111111111111,0)" xlink:href="#am"/><use transform="matrix(0.022222222222222223,0,0,0.022222222222222223,21.355555555555558,0)" xlink:href="#aU"/><use transform="matrix(0.022222222222222223,0,0,0.022222222222222223,28.444444444444446,0)" xlink:href="#aV"/><use transform="matrix(0.022222222222222223,0,0,0.022222222222222223,36.6,0)" xlink:href="#aI"/><use transform="matrix(0.022222222222222223,0,0,0.022222222222222223,45.800000000000004,0)" xlink:href="#aK"/><use transform="matrix(0.022222222222222223,0,0,0.022222222222222223,55.488888888888894,0)" xlink:href="#an"/><use transform="matrix(0.022222222222222223,0,0,0.022222222222222223,61.31111111111111,0)" xlink:href="#ao"/><use transform="matrix(0.022222222222222223,0,0,0.022222222222222223,73.06666666666666,0)" xlink:href="#ap"/><use transform="matrix(0.022222222222222223,0,0,0.022222222222222223,85.26666666666667,0)" xlink:href="#aL"/></g><path d="M257 17c-35 0-103-28-150-28-9 0-15 3-20 11H69L47-163h21C91-71 153-15 248-12c119 4 193-116 119-204-19-37-229-152-254-187-39-35-60-79-60-125 0-90 81-156 191-156 44 0 107 20 146 27 10 2 17-15 35-10l19 136h-19c-29-77-98-128-173-128-116 0-156 120-77 188 27 23 40 35 118 84 142 90 184 140 184 221 0 105-94 183-220 183" id="aW"/><g id="s"><use transform="matrix(0.022222222222222223,0,0,0.022222222222222223,0,0)" xlink:href="#aW"/><use transform="matrix(0.022222222222222223,0,0,0.022222222222222223,11.666666666666668,0)" xlink:href="#aJ"/><use transform="matrix(0.022222222222222223,0,0,0.022222222222222223,17.46666666666667,0)" xlink:href="#an"/><use transform="matrix(0.022222222222222223,0,0,0.022222222222222223,23.355555555555558,0)" xlink:href="#as"/><use transform="matrix(0.022222222222222223,0,0,0.022222222222222223,33.333333333333336,0)" xlink:href="#aL"/></g><path d="M444 17C236 17 56-128 56-328c0-197 182-356 390-356 198 0 380 142 380 335 0 206-167 366-382 366zm-28-676c-161 0-260 150-259 306C157-155 287-8 463-8c160 0 263-147 263-310 0-197-131-341-310-341" id="aX"/><path d="M657-436c149-1 101 215 101 367 0 42 30 51 92 49V0H609v-20c49 1 70-7 75-47 4-31 16-253-6-280-13-29-38-46-69-46-33 0-91 25-144 62v197c0 81 1 81 10 94 10 15 27 21 58 20V0H314v-20c29 1 53-8 67-23 21-21 13-159 13-214 0-71-1-79-11-99-11-23-39-38-68-38-33 0-71 16-144 62v198c0 81 1 80 10 94 10 16 29 21 66 20V0H24v-20c28 1 51-8 63-23 24-30 13-175 13-238 0-55-2-64-4-72-3-12-41-20-69-21v-18l128-46h16v86c87-58 148-84 193-84 51 0 89 33 99 85 91-58 152-85 194-85" id="aY"/><g id="t"><use transform="matrix(0.022222222222222223,0,0,0.022222222222222223,0,0)" xlink:href="#aX"/><use transform="matrix(0.022222222222222223,0,0,0.022222222222222223,19.6,0)" xlink:href="#aU"/><use transform="matrix(0.022222222222222223,0,0,0.022222222222222223,26.68888888888889,0)" xlink:href="#aU"/><use transform="matrix(0.022222222222222223,0,0,0.022222222222222223,33.77777777777778,0)" xlink:href="#an"/><use transform="matrix(0.022222222222222223,0,0,0.022222222222222223,39.97777777777778,0)" xlink:href="#aY"/><use transform="matrix(0.022222222222222223,0,0,0.022222222222222223,59.31111111111111,0)" xlink:href="#aI"/><use transform="matrix(0.022222222222222223,0,0,0.022222222222222223,68.51111111111112,0)" xlink:href="#aJ"/><use transform="matrix(0.022222222222222223,0,0,0.022222222222222223,74.08888888888889,0)" xlink:href="#aL"/></g><path d="M35-20c80-5 92-18 92-116v-484c-22-17-54-26-90-27v-20h169l505 527v-393c0-76-4-90-29-103-11-6-31-9-76-11v-20h251v20c-51 2-72 5-82 14-15 12-15 13-15 83V7h-28L176-574v433c0 65 3 81 13 97 11 19 34 20 95 24V0H35v-20" id="aZ"/><g id="u"><use transform="matrix(0.022222222222222223,0,0,0.022222222222222223,0,0)" xlink:href="#aZ"/><use transform="matrix(0.022222222222222223,0,0,0.022222222222222223,19.37777777777778,0)" xlink:href="#ao"/><use transform="matrix(0.022222222222222223,0,0,0.022222222222222223,31.200000000000003,0)" xlink:href="#aV"/><use transform="matrix(0.022222222222222223,0,0,0.022222222222222223,39.75555555555556,0)" xlink:href="#aY"/><use transform="matrix(0.022222222222222223,0,0,0.022222222222222223,59.08888888888889,0)" xlink:href="#aI"/><use transform="matrix(0.022222222222222223,0,0,0.022222222222222223,68.28888888888889,0)" xlink:href="#aJ"/><use transform="matrix(0.022222222222222223,0,0,0.022222222222222223,74.08888888888889,0)" xlink:href="#an"/><use transform="matrix(0.022222222222222223,0,0,0.022222222222222223,80.51111111111112,0)" xlink:href="#aK"/><use transform="matrix(0.022222222222222223,0,0,0.022222222222222223,90.20000000000002,0)" xlink:href="#aK"/><use transform="matrix(0.022222222222222223,0,0,0.022222222222222223,100.20000000000002,0)" xlink:href="#aI"/><use transform="matrix(0.022222222222222223,0,0,0.022222222222222223,109.40000000000002,0)" xlink:href="#aK"/><use transform="matrix(0.022222222222222223,0,0,0.022222222222222223,119.08888888888889,0)" xlink:href="#an"/><use transform="matrix(0.022222222222222223,0,0,0.022222222222222223,124.91111111111111,0)" xlink:href="#ao"/><use transform="matrix(0.022222222222222223,0,0,0.022222222222222223,136.66666666666669,0)" xlink:href="#ap"/><use transform="matrix(0.022222222222222223,0,0,0.022222222222222223,148.86666666666667,0)" xlink:href="#aL"/></g><path d="M43 0v-25l482-603H236c-78 0-92 3-107 27-11 17-16 40-21 85H88l6-151h552v24L161-39h344c61 0 73-2 92-13 27-16 33-30 59-142h18L662 0H43" id="ba"/><path d="M35-175v-72h350v72H35" id="bb"/><g id="v"><use transform="matrix(0.022222222222222223,0,0,0.022222222222222223,0,0)" xlink:href="#ba"/><use transform="matrix(0.022222222222222223,0,0,0.022222222222222223,16.133333333333333,0)" xlink:href="#bb"/><use transform="matrix(0.022222222222222223,0,0,0.022222222222222223,25.577777777777772,0)" xlink:href="#aW"/><use transform="matrix(0.022222222222222223,0,0,0.022222222222222223,37.4,0)" xlink:href="#as"/><use transform="matrix(0.022222222222222223,0,0,0.022222222222222223,47.37777777777778,0)" xlink:href="#ao"/><use transform="matrix(0.022222222222222223,0,0,0.022222222222222223,59.2,0)" xlink:href="#aV"/><use transform="matrix(0.022222222222222223,0,0,0.022222222222222223,66.97777777777779,0)" xlink:href="#aL"/></g><path d="M348-677c248 0 415 108 415 320C763-171 614-10 401-2 301 2 134-1 23 0v-20c40 1 73-5 87-21 14-17 16-18 16-94v-398c0-64-4-80-16-95s-40-20-87-19v-20c185-7 293-10 325-10zM226-35c10 12 25 15 69 15 139 0 191-14 254-66 74-62 114-150 114-253 0-162-88-278-232-304-59-11-144-15-216-10v558c0 43 1 50 11 60" id="bc"/><path d="M21 149C7 99 127 41 136 16 45 10-15-79 88-113c34-11 44-18 55-26-66-24-103-72-103-133 0-92 82-164 188-164 49 0 91 15 120 42 50-1 85-3 141-11v67c-41-2-85-7-107-13 67 133-62 252-220 218 1 9-64 28-64 55 0 17 19 25 63 32 34 5 224-1 254 24 37 14 64 54 64 95 0 112-160 177-291 177-99 0-167-41-167-101zm204-295c62 0 104-51 104-127 0-83-48-144-114-144-61 0-104 48-104 116 0 90 47 155 114 155zM157 20c3 9-69 54-69 91 0 56 76 108 157 108 94 0 178-60 178-126 0-32-19-54-56-62 32-4-184-6-210-11" id="bd"/><g id="w"><use transform="matrix(0.022222222222222223,0,0,0.022222222222222223,0,0)" xlink:href="#bc"/><use transform="matrix(0.022222222222222223,0,0,0.022222222222222223,18.177777777777777,0)" xlink:href="#aL"/><use transform="matrix(0.022222222222222223,0,0,0.022222222222222223,28.066666666666666,0)" xlink:href="#ap"/><use transform="matrix(0.022222222222222223,0,0,0.022222222222222223,40.2,0)" xlink:href="#ao"/><use transform="matrix(0.022222222222222223,0,0,0.022222222222222223,51.93333333333334,0)" xlink:href="#an"/><use transform="matrix(0.022222222222222223,0,0,0.022222222222222223,58.13333333333333,0)" xlink:href="#am"/><use transform="matrix(0.022222222222222223,0,0,0.022222222222222223,65.77777777777779,0)" xlink:href="#an"/><use transform="matrix(0.022222222222222223,0,0,0.022222222222222223,71.97777777777779,0)" xlink:href="#ap"/><use transform="matrix(0.022222222222222223,0,0,0.022222222222222223,84.64444444444446,0)" xlink:href="#bd"/></g><g id="x"><use transform="matrix(0.022222222222222223,0,0,0.022222222222222223,0,0)" xlink:href="#as"/><use transform="matrix(0.022222222222222223,0,0,0.022222222222222223,9.977777777777778,0)" xlink:href="#ao"/><use transform="matrix(0.022222222222222223,0,0,0.022222222222222223,21.733333333333334,0)" xlink:href="#ap"/></g><g id="y"><use transform="matrix(0.022222222222222223,0,0,0.022222222222222223,0,0)" xlink:href="#ac"/><use transform="matrix(0.022222222222222223,0,0,0.022222222222222223,12.777777777777779,0)" xlink:href="#an"/><use transform="matrix(0.022222222222222223,0,0,0.022222222222222223,18.977777777777778,0)" xlink:href="#aJ"/><use transform="matrix(0.022222222222222223,0,0,0.022222222222222223,24.77777777777778,0)" xlink:href="#aU"/><use transform="matrix(0.022222222222222223,0,0,0.022222222222222223,31.866666666666667,0)" xlink:href="#aV"/><use transform="matrix(0.022222222222222223,0,0,0.022222222222222223,39.644444444444446,0)" xlink:href="#ao"/></g><path d="M13 0v-20c79-1 88-14 94-115 9-152 27-304 27-457 0-39-16-52-66-55v-20h162l259 542 257-542h158v20c-92 12-73 15-67 97l29 412c6 88 7 89 17 102 11 14 38 16 78 16V0H685v-20c99-5 98-37 91-136l-28-416L479 0h-24L180-572c-9 161-29 320-29 483 0 46 24 66 85 69V0H13" id="be"/><path d="M450-117c0 86 20 68 78 54v22L392 13h-13v-77c-72 51-129 77-169 77-94 0-171-93-171-208 0-171 171-287 340-216v-183c0-56-1-56-43-61l-36-4v-18l137-44h13v604zM110-226c0 107 62 192 140 192 33 0 84-20 129-51v-237c-40-57-79-81-131-81-80 0-138 74-138 177" id="bf"/><g id="z"><use transform="matrix(0.022222222222222223,0,0,0.022222222222222223,0,0)" xlink:href="#be"/><use transform="matrix(0.022222222222222223,0,0,0.022222222222222223,21.68888888888889,0)" xlink:href="#aL"/><use transform="matrix(0.022222222222222223,0,0,0.022222222222222223,31.866666666666667,0)" xlink:href="#bf"/><use transform="matrix(0.022222222222222223,0,0,0.022222222222222223,43.77777777777778,0)" xlink:href="#an"/><use transform="matrix(0.022222222222222223,0,0,0.022222222222222223,50.111111111111114,0)" xlink:href="#aI"/><use transform="matrix(0.022222222222222223,0,0,0.022222222222222223,59.31111111111111,0)" xlink:href="#ap"/><use transform="matrix(0.022222222222222223,0,0,0.022222222222222223,71.44444444444446,0)" xlink:href="#ao"/></g><g id="A"><use transform="matrix(0.022222222222222223,0,0,0.022222222222222223,0,0)" xlink:href="#ac"/><use transform="matrix(0.022222222222222223,0,0,0.022222222222222223,12.777777777777779,0)" xlink:href="#al"/><use transform="matrix(0.022222222222222223,0,0,0.022222222222222223,25.066666666666666,0)" xlink:href="#am"/><use transform="matrix(0.022222222222222223,0,0,0.022222222222222223,32.711111111111116,0)" xlink:href="#an"/><use transform="matrix(0.022222222222222223,0,0,0.022222222222222223,38.53333333333334,0)" xlink:href="#ao"/><use transform="matrix(0.022222222222222223,0,0,0.022222222222222223,50.28888888888889,0)" xlink:href="#ap"/><use transform="matrix(0.022222222222222223,0,0,0.022222222222222223,62.488888888888894,0)" xlink:href="#aL"/></g><g id="B"><use transform="matrix(0.022222222222222223,0,0,0.022222222222222223,0,0)" xlink:href="#be"/><use transform="matrix(0.022222222222222223,0,0,0.022222222222222223,21.555555555555557,0)" xlink:href="#al"/><use transform="matrix(0.022222222222222223,0,0,0.022222222222222223,33.955555555555556,0)" xlink:href="#aJ"/><use transform="matrix(0.022222222222222223,0,0,0.022222222222222223,39.75555555555555,0)" xlink:href="#aU"/><use transform="matrix(0.022222222222222223,0,0,0.022222222222222223,46.84444444444445,0)" xlink:href="#an"/><use transform="matrix(0.022222222222222223,0,0,0.022222222222222223,53.044444444444444,0)" xlink:href="#aY"/><use transform="matrix(0.022222222222222223,0,0,0.022222222222222223,71.71111111111111,0)" xlink:href="#ao"/><use transform="matrix(0.022222222222222223,0,0,0.022222222222222223,83.75555555555556,0)" xlink:href="#bf"/><use transform="matrix(0.022222222222222223,0,0,0.022222222222222223,96.08888888888889,0)" xlink:href="#aI"/><use transform="matrix(0.022222222222222223,0,0,0.022222222222222223,105.28888888888889,0)" xlink:href="#aJ"/><use transform="matrix(0.022222222222222223,0,0,0.022222222222222223,110.86666666666665,0)" xlink:href="#aL"/></g><g id="C"><use transform="matrix(0.022222222222222223,0,0,0.022222222222222223,0,0)" xlink:href="#aW"/><use transform="matrix(0.022222222222222223,0,0,0.022222222222222223,11.866666666666667,0)" xlink:href="#aL"/><use transform="matrix(0.022222222222222223,0,0,0.022222222222222223,22.044444444444444,0)" xlink:href="#aL"/><use transform="matrix(0.022222222222222223,0,0,0.022222222222222223,32.22222222222222,0)" xlink:href="#bf"/></g><path d="M90 114c-1-146 1-295-1-440-1-25-2-26-64-41v-21l115-70h21v103c79-57 124-78 167-78 84 0 159 95 159 200C487-70 326 60 161-14c4 59-11 208 16 225 14 18 47 20 83 19v20H7v-20c35 1 59-5 72-23 9-13 11-27 11-93zm71-200c39 36 88 59 128 59 73 0 127-70 127-165 0-106-62-189-141-189-34 0-74 19-114 53v242" id="bg"/><g id="D"><use transform="matrix(0.022222222222222223,0,0,0.022222222222222223,0,0)" xlink:href="#be"/><use transform="matrix(0.022222222222222223,0,0,0.022222222222222223,22.177777777777777,0)" xlink:href="#aI"/><use transform="matrix(0.022222222222222223,0,0,0.022222222222222223,31.200000000000003,0)" xlink:href="#bg"/></g><path d="M320 15c-43 0-88-12-180-35-9 0-17 6-22 17H90L63-197h41C141-91 203-36 289-36c70 0 124-46 124-105 0-35-19-68-54-95-24-19-29-23-123-71S68-400 68-509c0-102 90-175 218-175 43 0 113 15 165 28 7 0 12-2 21-11h23l20 173h-43c-22-86-92-142-175-142-60 0-105 32-105 74 0 39 28 70 97 106 87 46 101 55 140 81 85 57 123 116 123 191C552-73 450 15 320 15" id="bh"/><path d="M219-119c-3 71 16 81 72 85V0H20v-34c50 2 68-17 68-75v-215c5-24-42-42-70-49v-27l181-61h20v123c117-83 176-111 232-111 61 0 102 41 111 111 47-38 178-111 237-111 78 0 112 56 112 184v130c1 84-3 93 60 101V0H719v-34c48-6 61-36 61-141v-64c0-91-19-129-66-129-34 0-74 18-148 67v182c-3 65 14 79 60 85V0H374v-34c95 9 61-147 61-229 0-71-21-105-65-105-39 0-81 19-151 69v180" id="bi"/><path d="M341-59c88 9 109-45 140-90h33L464 0H22v-34l283-345H156c-42 0-55 13-92 91H28l35-180h36c0 25-1 30 40 30h354v30L207-59h134" id="bj"/><g id="E"><use transform="matrix(0.020666666666666667,0,0,0.020666666666666667,0,0)" xlink:href="#bh"/><use transform="matrix(0.020666666666666667,0,0,0.020666666666666667,12.544666666666666,0)" xlink:href="#aF"/><use transform="matrix(0.020666666666666667,0,0,0.020666666666666667,23.002,0)" xlink:href="#aT"/><use transform="matrix(0.020666666666666667,0,0,0.020666666666666667,34.94733333333333,0)" xlink:href="#bi"/><use transform="matrix(0.020666666666666667,0,0,0.020666666666666667,55.366,0)" xlink:href="#aF"/><use transform="matrix(0.020666666666666667,0,0,0.020666666666666667,65.67866666666667,0)" xlink:href="#W"/><use transform="matrix(0.020666666666666667,0,0,0.020666666666666667,78.07866666666668,0)" xlink:href="#Z"/><use transform="matrix(0.020666666666666667,0,0,0.020666666666666667,85.97333333333336,0)" xlink:href="#aw"/><use transform="matrix(0.020666666666666667,0,0,0.020666666666666667,96.20333333333335,0)" xlink:href="#bj"/><use transform="matrix(0.020666666666666667,0,0,0.020666666666666667,107.11533333333335,0)" xlink:href="#ay"/><use transform="matrix(0.020666666666666667,0,0,0.020666666666666667,113.19133333333338,0)" xlink:href="#aB"/><use transform="matrix(0.020666666666666667,0,0,0.020666666666666667,125.40533333333335,0)" xlink:href="#W"/><use transform="matrix(0.020666666666666667,0,0,0.020666666666666667,137.90866666666668,0)" xlink:href="#aF"/></g><g id="F"><use transform="matrix(0.022222222222222223,0,0,0.022222222222222223,0,0)" xlink:href="#aX"/><use transform="matrix(0.022222222222222223,0,0,0.022222222222222223,19.6,0)" xlink:href="#aU"/><use transform="matrix(0.022222222222222223,0,0,0.022222222222222223,26.68888888888889,0)" xlink:href="#am"/><use transform="matrix(0.022222222222222223,0,0,0.022222222222222223,34.333333333333336,0)" xlink:href="#al"/></g><path d="M226 9L85-316c-33-77-38-82-95-89v-20h219v20c-90 9-78 15-51 81L263-78l102-232c32-59 15-90-62-95v-20h187v20c-50 12-62 26-100 112L258 9h-32" id="bk"/><g id="G"><use transform="matrix(0.022222222222222223,0,0,0.022222222222222223,0,0)" xlink:href="#be"/><use transform="matrix(0.022222222222222223,0,0,0.022222222222222223,21.555555555555557,0)" xlink:href="#al"/><use transform="matrix(0.022222222222222223,0,0,0.022222222222222223,33.955555555555556,0)" xlink:href="#aJ"/><use transform="matrix(0.022222222222222223,0,0,0.022222222222222223,39.75555555555555,0)" xlink:href="#aU"/><use transform="matrix(0.022222222222222223,0,0,0.022222222222222223,46.84444444444445,0)" xlink:href="#an"/><use transform="matrix(0.022222222222222223,0,0,0.022222222222222223,53.044444444444444,0)" xlink:href="#aJ"/><use transform="matrix(0.022222222222222223,0,0,0.022222222222222223,58.844444444444434,0)" xlink:href="#an"/><use transform="matrix(0.022222222222222223,0,0,0.022222222222222223,64.91111111111111,0)" xlink:href="#bk"/><use transform="matrix(0.022222222222222223,0,0,0.022222222222222223,75.08888888888889,0)" xlink:href="#aL"/><use transform="matrix(0.022222222222222223,0,0,0.022222222222222223,84.88888888888889,0)" xlink:href="#aJ"/><use transform="matrix(0.022222222222222223,0,0,0.022222222222222223,90.68888888888888,0)" xlink:href="#aJ"/><use transform="matrix(0.022222222222222223,0,0,0.022222222222222223,96.26666666666665,0)" xlink:href="#ao"/></g><g id="H"><use transform="matrix(0.022222222222222223,0,0,0.022222222222222223,0,0)" xlink:href="#ag"/><use transform="matrix(0.022222222222222223,0,0,0.022222222222222223,18.222222222222225,0)" xlink:href="#aL"/><use transform="matrix(0.022222222222222223,0,0,0.022222222222222223,28.400000000000006,0)" xlink:href="#bd"/><use transform="matrix(0.022222222222222223,0,0,0.022222222222222223,39.177777777777784,0)" xlink:href="#an"/><use transform="matrix(0.022222222222222223,0,0,0.022222222222222223,45.00000000000001,0)" xlink:href="#ao"/><use transform="matrix(0.022222222222222223,0,0,0.022222222222222223,56.75555555555556,0)" xlink:href="#ap"/></g><path d="M157-328C157-84 384 68 600-51c-3-53 9-183-16-195-14-20-67-21-109-20v-20h289v19c-68 7-75 22-75 116v100c-58 36-195 68-286 68C203 17 57-126 57-321c0-199 160-363 375-363 58 0 135 21 215 37 15 3 20-11 38-8v174h-21c-23-114-100-178-217-178-176 0-290 130-290 331" id="bl"/><path d="M230 9L86-315c-33-75-43-84-96-90v-20h208v20c-71 9-66 23-41 80L268-75l106-250c-26-62-45-77-105-80v-20h222v20c-72 3-60 35-39 86l99 239 87-213c19-46 24-62 24-75 0-28-14-35-71-37v-20h180v20c-53 7-67 25-107 124L546 9h-30L388-293 260 9h-30" id="bm"/><g id="I"><use transform="matrix(0.022222222222222223,0,0,0.022222222222222223,0,0)" xlink:href="#bl"/><use transform="matrix(0.022222222222222223,0,0,0.022222222222222223,17.533333333333335,0)" xlink:href="#aV"/><use transform="matrix(0.022222222222222223,0,0,0.022222222222222223,25.311111111111114,0)" xlink:href="#ao"/><use transform="matrix(0.022222222222222223,0,0,0.022222222222222223,36.75555555555556,0)" xlink:href="#bm"/><use transform="matrix(0.022222222222222223,0,0,0.022222222222222223,53.733333333333334,0)" xlink:href="#an"/><use transform="matrix(0.022222222222222223,0,0,0.022222222222222223,59.93333333333334,0)" xlink:href="#ap"/><use transform="matrix(0.022222222222222223,0,0,0.022222222222222223,72.60000000000001,0)" xlink:href="#bd"/></g><path d="M259-647c-87-3-84 32-55 105L384-88l116-287-79-192c-26-63-46-79-118-80v-20h440v20c-73 1-89 15-116 80l-59 144L709-88l176-464c20-53 20-53 20-61 0-24-20-32-82-34v-20h222v20c-65 1-83 17-113 97L716 19h-51L525-315 390 19h-53L121-534C83-630 66-647-19-647v-20h278v20zm284 164c15-41 47-98 54-141 5-29-47-23-77-23-47 0-39 19-22 59" id="bn"/><path d="M467-254c0 55-3 144-5 192-1 34 24 43 81 42V0H312v-20c107 2 84-88 84-199 0-79-4-106-17-129-17-29-46-45-83-45-36 0-62 10-125 46v213c0 81 1 81 10 94 10 15 26 20 60 20V0H27v-20c31-1 47-8 60-23 11-13 13-26 13-90v-449c0-55 0-55-6-62-3-9-48-12-68-14v-19l129-44h16v352c87-51 132-68 178-68 98 0 118 61 118 183" id="bo"/><g id="J"><use transform="matrix(0.022222222222222223,0,0,0.022222222222222223,0,0)" xlink:href="#bn"/><use transform="matrix(0.022222222222222223,0,0,0.022222222222222223,21.6,0)" xlink:href="#aI"/><use transform="matrix(0.022222222222222223,0,0,0.022222222222222223,30.6,0)" xlink:href="#aU"/><use transform="matrix(0.022222222222222223,0,0,0.022222222222222223,37.68888888888889,0)" xlink:href="#aL"/><use transform="matrix(0.022222222222222223,0,0,0.022222222222222223,47.53333333333334,0)" xlink:href="#aV"/><use transform="matrix(0.022222222222222223,0,0,0.022222222222222223,55.57777777777778,0)" xlink:href="#am"/><use transform="matrix(0.022222222222222223,0,0,0.022222222222222223,63.22222222222222,0)" xlink:href="#bo"/><use transform="matrix(0.022222222222222223,0,0,0.022222222222222223,75.33333333333333,0)" xlink:href="#aL"/><use transform="matrix(0.022222222222222223,0,0,0.022222222222222223,85.5111111111111,0)" xlink:href="#bf"/></g><g id="K"><use transform="matrix(0.022222222222222223,0,0,0.022222222222222223,0,0)" xlink:href="#be"/><use transform="matrix(0.022222222222222223,0,0,0.022222222222222223,22.177777777777777,0)" xlink:href="#aI"/><use transform="matrix(0.022222222222222223,0,0,0.022222222222222223,31.37777777777778,0)" xlink:href="#aV"/><use transform="matrix(0.022222222222222223,0,0,0.022222222222222223,39.022222222222226,0)" xlink:href="#as"/><use transform="matrix(0.022222222222222223,0,0,0.022222222222222223,49,0)" xlink:href="#aI"/><use transform="matrix(0.022222222222222223,0,0,0.022222222222222223,58,0)" xlink:href="#aU"/><use transform="matrix(0.022222222222222223,0,0,0.022222222222222223,65,0)" xlink:href="#ao"/></g><g id="L"><use transform="matrix(0.020666666666666667,0,0,0.020666666666666667,0,0)" xlink:href="#aQ"/><use transform="matrix(0.020666666666666667,0,0,0.020666666666666667,13.681333333333333,0)" xlink:href="#aB"/><use transform="matrix(0.020666666666666667,0,0,0.020666666666666667,25.998666666666665,0)" xlink:href="#az"/><use transform="matrix(0.020666666666666667,0,0,0.020666666666666667,34.162,0)" xlink:href="#Z"/><use transform="matrix(0.020666666666666667,0,0,0.020666666666666667,41.80866666666667,0)" xlink:href="#aR"/><use transform="matrix(0.020666666666666667,0,0,0.020666666666666667,51.04666666666667,0)" xlink:href="#aQ"/><use transform="matrix(0.020666666666666667,0,0,0.020666666666666667,65.38933333333333,0)" xlink:href="#aC"/><use transform="matrix(0.020666666666666667,0,0,0.020666666666666667,73.86266666666666,0)" xlink:href="#aB"/><use transform="matrix(0.020666666666666667,0,0,0.020666666666666667,86.17999999999999,0)" xlink:href="#aS"/><use transform="matrix(0.020666666666666667,0,0,0.020666666666666667,96.80266666666665,0)" xlink:href="#aF"/><use transform="matrix(0.020666666666666667,0,0,0.020666666666666667,107.26,0)" xlink:href="#az"/><use transform="matrix(0.020666666666666667,0,0,0.020666666666666667,115.56799999999998,0)" xlink:href="#az"/><use transform="matrix(0.020666666666666667,0,0,0.020666666666666667,123.87599999999998,0)" xlink:href="#ay"/><use transform="matrix(0.020666666666666667,0,0,0.020666666666666667,130.22066666666663,0)" xlink:href="#W"/><use transform="matrix(0.020666666666666667,0,0,0.020666666666666667,142.6413333333333,0)" xlink:href="#aT"/></g><g id="M"><use transform="matrix(0.022222222222222223,0,0,0.022222222222222223,0,0)" xlink:href="#aX"/><use transform="matrix(0.022222222222222223,0,0,0.022222222222222223,19.755555555555556,0)" xlink:href="#bg"/><use transform="matrix(0.022222222222222223,0,0,0.022222222222222223,31.46666666666667,0)" xlink:href="#aL"/><use transform="matrix(0.022222222222222223,0,0,0.022222222222222223,41.31111111111112,0)" xlink:href="#aV"/><use transform="matrix(0.022222222222222223,0,0,0.022222222222222223,49.466666666666676,0)" xlink:href="#aI"/><use transform="matrix(0.022222222222222223,0,0,0.022222222222222223,58.66666666666668,0)" xlink:href="#aK"/><use transform="matrix(0.022222222222222223,0,0,0.022222222222222223,68.35555555555557,0)" xlink:href="#an"/><use transform="matrix(0.022222222222222223,0,0,0.022222222222222223,74.17777777777779,0)" xlink:href="#ao"/><use transform="matrix(0.022222222222222223,0,0,0.022222222222222223,85.93333333333334,0)" xlink:href="#ap"/><use transform="matrix(0.022222222222222223,0,0,0.022222222222222223,98.42222222222223,0)" xlink:href="#an"/></g><path d="M412-619c-32-21-91-55-126-55-46 0-86 31-104 74-12 27-14 91-14 175h109l7 47H168v250c0 68 2 81 15 93 12 16 69 16 106 15V0H24v-20c28 1 54-5 62-17 10-14 11-25 11-96v-245H18v-18c27-6 58-17 79-29 1-92 16-140 57-193 52-65 118-104 178-104 47 0 111 29 111 50 0 15-22 53-31 53" id="bp"/><g id="N"><use transform="matrix(0.022222222222222223,0,0,0.022222222222222223,0,0)" xlink:href="#be"/><use transform="matrix(0.022222222222222223,0,0,0.022222222222222223,21.622222222222224,0)" xlink:href="#ao"/><use transform="matrix(0.022222222222222223,0,0,0.022222222222222223,33.44444444444444,0)" xlink:href="#aV"/><use transform="matrix(0.022222222222222223,0,0,0.022222222222222223,42.17777777777778,0)" xlink:href="#bp"/><use transform="matrix(0.022222222222222223,0,0,0.022222222222222223,48.17777777777778,0)" xlink:href="#ao"/><use transform="matrix(0.022222222222222223,0,0,0.022222222222222223,59.91111111111111,0)" xlink:href="#aJ"/><use transform="matrix(0.022222222222222223,0,0,0.022222222222222223,65.4888888888889,0)" xlink:href="#ao"/><use transform="matrix(0.022222222222222223,0,0,0.022222222222222223,77.53333333333333,0)" xlink:href="#bd"/><use transform="matrix(0.022222222222222223,0,0,0.022222222222222223,88.3111111111111,0)" xlink:href="#an"/><use transform="matrix(0.022222222222222223,0,0,0.022222222222222223,94.19999999999999,0)" xlink:href="#as"/><use transform="matrix(0.022222222222222223,0,0,0.022222222222222223,103.73333333333332,0)" xlink:href="#bo"/><use transform="matrix(0.022222222222222223,0,0,0.022222222222222223,115.84444444444443,0)" xlink:href="#aL"/></g><g id="O"><use transform="matrix(0.022222222222222223,0,0,0.022222222222222223,0,0)" xlink:href="#ag"/><use transform="matrix(0.022222222222222223,0,0,0.022222222222222223,19.044444444444448,0)" xlink:href="#an"/><use transform="matrix(0.022222222222222223,0,0,0.022222222222222223,25.244444444444447,0)" xlink:href="#bp"/><use transform="matrix(0.022222222222222223,0,0,0.022222222222222223,31.711111111111116,0)" xlink:href="#an"/><use transform="matrix(0.022222222222222223,0,0,0.022222222222222223,37.91111111111112,0)" xlink:href="#ap"/><use transform="matrix(0.022222222222222223,0,0,0.022222222222222223,50.4,0)" xlink:href="#an"/><use transform="matrix(0.022222222222222223,0,0,0.022222222222222223,56.600000000000016,0)" xlink:href="#aU"/><use transform="matrix(0.022222222222222223,0,0,0.022222222222222223,63.688888888888904,0)" xlink:href="#al"/><use transform="matrix(0.022222222222222223,0,0,0.022222222222222223,76.0888888888889,0)" xlink:href="#aV"/><use transform="matrix(0.022222222222222223,0,0,0.022222222222222223,84.24444444444447,0)" xlink:href="#aI"/></g><g id="P"><use transform="matrix(0.022222222222222223,0,0,0.022222222222222223,0,0)" xlink:href="#bf"/><use transform="matrix(0.022222222222222223,0,0,0.022222222222222223,11.8,0)" xlink:href="#aL"/><use transform="matrix(0.022222222222222223,0,0,0.022222222222222223,21.6,0)" xlink:href="#aJ"/><use transform="matrix(0.022222222222222223,0,0,0.022222222222222223,27.400000000000002,0)" xlink:href="#aJ"/><use transform="matrix(0.022222222222222223,0,0,0.022222222222222223,32.97777777777778,0)" xlink:href="#aL"/></g><g id="Q"><use transform="matrix(0.022222222222222223,0,0,0.022222222222222223,0,0)" xlink:href="#be"/><use transform="matrix(0.022222222222222223,0,0,0.022222222222222223,22.177777777777777,0)" xlink:href="#aI"/><use transform="matrix(0.022222222222222223,0,0,0.022222222222222223,31.533333333333328,0)" xlink:href="#am"/><use transform="matrix(0.022222222222222223,0,0,0.022222222222222223,39.17777777777778,0)" xlink:href="#as"/><use transform="matrix(0.022222222222222223,0,0,0.022222222222222223,48.711111111111116,0)" xlink:href="#bo"/><use transform="matrix(0.022222222222222223,0,0,0.022222222222222223,60.82222222222222,0)" xlink:href="#aL"/><use transform="matrix(0.022222222222222223,0,0,0.022222222222222223,70.66666666666667,0)" xlink:href="#aV"/><use transform="matrix(0.022222222222222223,0,0,0.022222222222222223,78.44444444444446,0)" xlink:href="#aL"/></g><g id="R"><use transform="matrix(0.022222222222222223,0,0,0.022222222222222223,0,0)" xlink:href="#aN"/><use transform="matrix(0.022222222222222223,0,0,0.022222222222222223,17.37777777777778,0)" xlink:href="#aI"/><use transform="matrix(0.022222222222222223,0,0,0.022222222222222223,26.577777777777783,0)" xlink:href="#aJ"/><use transform="matrix(0.022222222222222223,0,0,0.022222222222222223,32.15555555555556,0)" xlink:href="#as"/><use transform="matrix(0.022222222222222223,0,0,0.022222222222222223,42.13333333333334,0)" xlink:href="#ao"/><use transform="matrix(0.022222222222222223,0,0,0.022222222222222223,53.86666666666668,0)" xlink:href="#aJ"/><use transform="matrix(0.022222222222222223,0,0,0.022222222222222223,59.44444444444445,0)" xlink:href="#ao"/></g><g id="S"><use transform="matrix(0.022222222222222223,0,0,0.022222222222222223,0,0)" xlink:href="#aY"/><use transform="matrix(0.022222222222222223,0,0,0.022222222222222223,18.733333333333334,0)" xlink:href="#aL"/><use transform="matrix(0.022222222222222223,0,0,0.022222222222222223,28.44444444444445,0)" xlink:href="#aU"/><use transform="matrix(0.022222222222222223,0,0,0.022222222222222223,35.53333333333334,0)" xlink:href="#aV"/><use transform="matrix(0.022222222222222223,0,0,0.022222222222222223,44.2,0)" xlink:href="#an"/><use transform="matrix(0.022222222222222223,0,0,0.022222222222222223,50.08888888888889,0)" xlink:href="#as"/><use transform="matrix(0.022222222222222223,0,0,0.022222222222222223,59.622222222222234,0)" xlink:href="#bo"/><use transform="matrix(0.022222222222222223,0,0,0.022222222222222223,71.73333333333335,0)" xlink:href="#aL"/></g><g id="T"><use transform="matrix(0.022222222222222223,0,0,0.022222222222222223,0,0)" xlink:href="#bf"/><use transform="matrix(0.022222222222222223,0,0,0.022222222222222223,11.911111111111111,0)" xlink:href="#an"/></g><g id="U"><use transform="matrix(0.022222222222222223,0,0,0.022222222222222223,0,0)" xlink:href="#bk"/><use transform="matrix(0.022222222222222223,0,0,0.022222222222222223,10.511111111111113,0)" xlink:href="#aI"/><use transform="matrix(0.022222222222222223,0,0,0.022222222222222223,19.711111111111116,0)" xlink:href="#aJ"/><use transform="matrix(0.022222222222222223,0,0,0.022222222222222223,25.511111111111116,0)" xlink:href="#al"/><use transform="matrix(0.022222222222222223,0,0,0.022222222222222223,37.488888888888894,0)" xlink:href="#aU"/><use transform="matrix(0.022222222222222223,0,0,0.022222222222222223,45.00000000000001,0)" xlink:href="#aI"/><use transform="matrix(0.022222222222222223,0,0,0.022222222222222223,54.20000000000001,0)" xlink:href="#aK"/><use transform="matrix(0.022222222222222223,0,0,0.022222222222222223,63.8888888888889,0)" xlink:href="#an"/><use transform="matrix(0.022222222222222223,0,0,0.022222222222222223,69.71111111111112,0)" xlink:href="#ao"/><use transform="matrix(0.022222222222222223,0,0,0.022222222222222223,81.46666666666667,0)" xlink:href="#ap"/><use transform="matrix(0.022222222222222223,0,0,0.022222222222222223,93.66666666666667,0)" xlink:href="#aL"/></g></defs></g></svg>